<?xml version="1.0" encoding="utf-8" standalone="no"?>
<!DOCTYPE svg PUBLIC "-//W3C//DTD SVG 1.1//EN"
  "http://www.w3.org/Graphics/SVG/1.1/DTD/svg11.dtd">
<!-- Created with matplotlib (https://matplotlib.org/) -->
<svg height="345.6pt" version="1.1" viewBox="0 0 460.8 345.6" width="460.8pt" xmlns="http://www.w3.org/2000/svg" xmlns:xlink="http://www.w3.org/1999/xlink">
 <defs>
  <style type="text/css">
*{stroke-linecap:butt;stroke-linejoin:round;}
  </style>
 </defs>
 <g id="figure_1">
  <g id="patch_1">
   <path d="M 0 345.6 
L 460.8 345.6 
L 460.8 0 
L 0 0 
z
" style="fill:#ffffff;"/>
  </g>
  <g id="axes_1">
   <g id="patch_2">
    <path d="M 57.6 307.584 
L 414.72 307.584 
L 414.72 41.472 
L 57.6 41.472 
z
" style="fill:#ffffff;"/>
   </g>
   <g id="PathCollection_1">
    <defs>
     <path d="M 0 3 
C 0.795609 3 1.55874 2.683901 2.12132 2.12132 
C 2.683901 1.55874 3 0.795609 3 0 
C 3 -0.795609 2.683901 -1.55874 2.12132 -2.12132 
C 1.55874 -2.683901 0.795609 -3 0 -3 
C -0.795609 -3 -1.55874 -2.683901 -2.12132 -2.12132 
C -2.683901 -1.55874 -3 -0.795609 -3 0 
C -3 0.795609 -2.683901 1.55874 -2.12132 2.12132 
C -1.55874 2.683901 -0.795609 3 0 3 
z
" id="mfb94506dfa" style="stroke:#ff0000;"/>
    </defs>
    <g clip-path="url(#pe3f618babf)">
     <use style="fill:#ff0000;stroke:#ff0000;" x="241.531529" xlink:href="#mfb94506dfa" y="215.197205"/>
     <use style="fill:#ff0000;stroke:#ff0000;" x="235.74681" xlink:href="#mfb94506dfa" y="134.110375"/>
     <use style="fill:#ff0000;stroke:#ff0000;" x="194.50411" xlink:href="#mfb94506dfa" y="150.677874"/>
     <use style="fill:#ff0000;stroke:#ff0000;" x="220.16378" xlink:href="#mfb94506dfa" y="133.499148"/>
     <use style="fill:#ff0000;stroke:#ff0000;" x="192.739092" xlink:href="#mfb94506dfa" y="192.667214"/>
     <use style="fill:#ff0000;stroke:#ff0000;" x="181.045887" xlink:href="#mfb94506dfa" y="174.232864"/>
     <use style="fill:#ff0000;stroke:#ff0000;" x="240.543674" xlink:href="#mfb94506dfa" y="210.774553"/>
     <use style="fill:#ff0000;stroke:#ff0000;" x="238.511053" xlink:href="#mfb94506dfa" y="132.484842"/>
     <use style="fill:#ff0000;stroke:#ff0000;" x="296.028808" xlink:href="#mfb94506dfa" y="177.592841"/>
     <use style="fill:#ff0000;stroke:#ff0000;" x="284.939866" xlink:href="#mfb94506dfa" y="197.19909"/>
     <use style="fill:#ff0000;stroke:#ff0000;" x="232.202797" xlink:href="#mfb94506dfa" y="210.718546"/>
     <use style="fill:#ff0000;stroke:#ff0000;" x="215.486089" xlink:href="#mfb94506dfa" y="212.058902"/>
     <use style="fill:#ff0000;stroke:#ff0000;" x="281.43723" xlink:href="#mfb94506dfa" y="149.714562"/>
     <use style="fill:#ff0000;stroke:#ff0000;" x="198.335177" xlink:href="#mfb94506dfa" y="198.020064"/>
     <use style="fill:#ff0000;stroke:#ff0000;" x="295.134913" xlink:href="#mfb94506dfa" y="181.891736"/>
     <use style="fill:#ff0000;stroke:#ff0000;" x="273.856078" xlink:href="#mfb94506dfa" y="202.454624"/>
     <use style="fill:#ff0000;stroke:#ff0000;" x="255.886878" xlink:href="#mfb94506dfa" y="208.402331"/>
     <use style="fill:#ff0000;stroke:#ff0000;" x="292.306862" xlink:href="#mfb94506dfa" y="169.454249"/>
     <use style="fill:#ff0000;stroke:#ff0000;" x="193.90196" xlink:href="#mfb94506dfa" y="148.457198"/>
     <use style="fill:#ff0000;stroke:#ff0000;" x="210.757184" xlink:href="#mfb94506dfa" y="209.646987"/>
     <use style="fill:#ff0000;stroke:#ff0000;" x="190.730485" xlink:href="#mfb94506dfa" y="171.53686"/>
     <use style="fill:#ff0000;stroke:#ff0000;" x="240.873782" xlink:href="#mfb94506dfa" y="130.544158"/>
     <use style="fill:#ff0000;stroke:#ff0000;" x="274.014526" xlink:href="#mfb94506dfa" y="200.720129"/>
     <use style="fill:#ff0000;stroke:#ff0000;" x="193.099206" xlink:href="#mfb94506dfa" y="188.246165"/>
     <use style="fill:#ff0000;stroke:#ff0000;" x="288.162801" xlink:href="#mfb94506dfa" y="180.565339"/>
     <use style="fill:#ff0000;stroke:#ff0000;" x="185.134528" xlink:href="#mfb94506dfa" y="159.501878"/>
     <use style="fill:#ff0000;stroke:#ff0000;" x="217.874957" xlink:href="#mfb94506dfa" y="140.193582"/>
     <use style="fill:#ff0000;stroke:#ff0000;" x="287.396835" xlink:href="#mfb94506dfa" y="189.199624"/>
     <use style="fill:#ff0000;stroke:#ff0000;" x="192.068451" xlink:href="#mfb94506dfa" y="184.515633"/>
     <use style="fill:#ff0000;stroke:#ff0000;" x="185.618003" xlink:href="#mfb94506dfa" y="185.069024"/>
     <use style="fill:#ff0000;stroke:#ff0000;" x="183.824825" xlink:href="#mfb94506dfa" y="183.500646"/>
     <use style="fill:#ff0000;stroke:#ff0000;" x="192.247797" xlink:href="#mfb94506dfa" y="199.07289"/>
     <use style="fill:#ff0000;stroke:#ff0000;" x="187.646439" xlink:href="#mfb94506dfa" y="159.337997"/>
     <use style="fill:#ff0000;stroke:#ff0000;" x="197.94675" xlink:href="#mfb94506dfa" y="146.294382"/>
     <use style="fill:#ff0000;stroke:#ff0000;" x="225.117352" xlink:href="#mfb94506dfa" y="134.104718"/>
     <use style="fill:#ff0000;stroke:#ff0000;" x="258.042425" xlink:href="#mfb94506dfa" y="138.770868"/>
     <use style="fill:#ff0000;stroke:#ff0000;" x="208.514602" xlink:href="#mfb94506dfa" y="206.65914"/>
     <use style="fill:#ff0000;stroke:#ff0000;" x="283.517812" xlink:href="#mfb94506dfa" y="151.916248"/>
     <use style="fill:#ff0000;stroke:#ff0000;" x="278.762848" xlink:href="#mfb94506dfa" y="202.052857"/>
     <use style="fill:#ff0000;stroke:#ff0000;" x="270.420714" xlink:href="#mfb94506dfa" y="208.836394"/>
     <use style="fill:#ff0000;stroke:#ff0000;" x="289.650514" xlink:href="#mfb94506dfa" y="192.816509"/>
     <use style="fill:#ff0000;stroke:#ff0000;" x="196.995688" xlink:href="#mfb94506dfa" y="147.807991"/>
     <use style="fill:#ff0000;stroke:#ff0000;" x="229.784047" xlink:href="#mfb94506dfa" y="132.330038"/>
     <use style="fill:#ff0000;stroke:#ff0000;" x="271.825758" xlink:href="#mfb94506dfa" y="207.045575"/>
     <use style="fill:#ff0000;stroke:#ff0000;" x="190.07676" xlink:href="#mfb94506dfa" y="195.795769"/>
     <use style="fill:#ff0000;stroke:#ff0000;" x="187.710781" xlink:href="#mfb94506dfa" y="193.669234"/>
     <use style="fill:#ff0000;stroke:#ff0000;" x="210.469707" xlink:href="#mfb94506dfa" y="206.070409"/>
     <use style="fill:#ff0000;stroke:#ff0000;" x="289.487386" xlink:href="#mfb94506dfa" y="194.647171"/>
     <use style="fill:#ff0000;stroke:#ff0000;" x="287.732429" xlink:href="#mfb94506dfa" y="152.256131"/>
     <use style="fill:#ff0000;stroke:#ff0000;" x="184.367448" xlink:href="#mfb94506dfa" y="169.532595"/>
     <use style="fill:#ff0000;stroke:#ff0000;" x="269.452684" xlink:href="#mfb94506dfa" y="206.526491"/>
     <use style="fill:#ff0000;stroke:#ff0000;" x="232.816019" xlink:href="#mfb94506dfa" y="210.23928"/>
     <use style="fill:#ff0000;stroke:#ff0000;" x="247.769493" xlink:href="#mfb94506dfa" y="137.076908"/>
     <use style="fill:#ff0000;stroke:#ff0000;" x="210.703271" xlink:href="#mfb94506dfa" y="136.597463"/>
     <use style="fill:#ff0000;stroke:#ff0000;" x="284.412833" xlink:href="#mfb94506dfa" y="148.126441"/>
     <use style="fill:#ff0000;stroke:#ff0000;" x="222.687547" xlink:href="#mfb94506dfa" y="207.759126"/>
     <use style="fill:#ff0000;stroke:#ff0000;" x="195.347825" xlink:href="#mfb94506dfa" y="189.067715"/>
     <use style="fill:#ff0000;stroke:#ff0000;" x="182.327116" xlink:href="#mfb94506dfa" y="182.098224"/>
     <use style="fill:#ff0000;stroke:#ff0000;" x="293.147214" xlink:href="#mfb94506dfa" y="166.131265"/>
     <use style="fill:#ff0000;stroke:#ff0000;" x="195.70605" xlink:href="#mfb94506dfa" y="198.138632"/>
     <use style="fill:#ff0000;stroke:#ff0000;" x="155.387017" xlink:href="#mfb94506dfa" y="122.635301"/>
     <use style="fill:#ff0000;stroke:#ff0000;" x="343.137078" xlink:href="#mfb94506dfa" y="182.50739"/>
     <use style="fill:#ff0000;stroke:#ff0000;" x="339.427926" xlink:href="#mfb94506dfa" y="162.749395"/>
     <use style="fill:#ff0000;stroke:#ff0000;" x="283.000734" xlink:href="#mfb94506dfa" y="97.033505"/>
     <use style="fill:#ff0000;stroke:#ff0000;" x="263.843652" xlink:href="#mfb94506dfa" y="99.167554"/>
     <use style="fill:#ff0000;stroke:#ff0000;" x="340.014823" xlink:href="#mfb94506dfa" y="204.406535"/>
     <use style="fill:#ff0000;stroke:#ff0000;" x="148.036624" xlink:href="#mfb94506dfa" y="139.035594"/>
     <use style="fill:#ff0000;stroke:#ff0000;" x="232.307889" xlink:href="#mfb94506dfa" y="97.168545"/>
     <use style="fill:#ff0000;stroke:#ff0000;" x="176.153673" xlink:href="#mfb94506dfa" y="234.298871"/>
     <use style="fill:#ff0000;stroke:#ff0000;" x="283.213674" xlink:href="#mfb94506dfa" y="102.402762"/>
     <use style="fill:#ff0000;stroke:#ff0000;" x="342.099797" xlink:href="#mfb94506dfa" y="153.592946"/>
     <use style="fill:#ff0000;stroke:#ff0000;" x="340.774565" xlink:href="#mfb94506dfa" y="178.582217"/>
     <use style="fill:#ff0000;stroke:#ff0000;" x="173.488962" xlink:href="#mfb94506dfa" y="113.413134"/>
     <use style="fill:#ff0000;stroke:#ff0000;" x="296.168459" xlink:href="#mfb94506dfa" y="241.7624"/>
     <use style="fill:#ff0000;stroke:#ff0000;" x="292.552668" xlink:href="#mfb94506dfa" y="100.89655"/>
     <use style="fill:#ff0000;stroke:#ff0000;" x="344.763116" xlink:href="#mfb94506dfa" y="189.762146"/>
     <use style="fill:#ff0000;stroke:#ff0000;" x="193.104422" xlink:href="#mfb94506dfa" y="240.598129"/>
     <use style="fill:#ff0000;stroke:#ff0000;" x="178.231875" xlink:href="#mfb94506dfa" y="104.520437"/>
     <use style="fill:#ff0000;stroke:#ff0000;" x="153.35934" xlink:href="#mfb94506dfa" y="217.0433"/>
     <use style="fill:#ff0000;stroke:#ff0000;" x="286.919101" xlink:href="#mfb94506dfa" y="102.93775"/>
     <use style="fill:#ff0000;stroke:#ff0000;" x="148.947868" xlink:href="#mfb94506dfa" y="130.667617"/>
     <use style="fill:#ff0000;stroke:#ff0000;" x="131.479861" xlink:href="#mfb94506dfa" y="177.275181"/>
     <use style="fill:#ff0000;stroke:#ff0000;" x="173.45428" xlink:href="#mfb94506dfa" y="112.295678"/>
     <use style="fill:#ff0000;stroke:#ff0000;" x="238.038752" xlink:href="#mfb94506dfa" y="91.199103"/>
     <use style="fill:#ff0000;stroke:#ff0000;" x="345.628114" xlink:href="#mfb94506dfa" y="166.760895"/>
     <use style="fill:#ff0000;stroke:#ff0000;" x="182.556786" xlink:href="#mfb94506dfa" y="103.478487"/>
     <use style="fill:#ff0000;stroke:#ff0000;" x="219.058403" xlink:href="#mfb94506dfa" y="98.879654"/>
     <use style="fill:#ff0000;stroke:#ff0000;" x="338.067352" xlink:href="#mfb94506dfa" y="195.3373"/>
     <use style="fill:#ff0000;stroke:#ff0000;" x="213.919004" xlink:href="#mfb94506dfa" y="97.234491"/>
     <use style="fill:#ff0000;stroke:#ff0000;" x="338.012523" xlink:href="#mfb94506dfa" y="198.511055"/>
     <use style="fill:#ff0000;stroke:#ff0000;" x="160.421367" xlink:href="#mfb94506dfa" y="228.242341"/>
     <use style="fill:#ff0000;stroke:#ff0000;" x="155.62903" xlink:href="#mfb94506dfa" y="120.691228"/>
     <use style="fill:#ff0000;stroke:#ff0000;" x="176.99706" xlink:href="#mfb94506dfa" y="236.662759"/>
     <use style="fill:#ff0000;stroke:#ff0000;" x="274.608467" xlink:href="#mfb94506dfa" y="102.695871"/>
     <use style="fill:#ff0000;stroke:#ff0000;" x="245.652813" xlink:href="#mfb94506dfa" y="95.350665"/>
     <use style="fill:#ff0000;stroke:#ff0000;" x="160.52209" xlink:href="#mfb94506dfa" y="117.583886"/>
     <use style="fill:#ff0000;stroke:#ff0000;" x="138.045546" xlink:href="#mfb94506dfa" y="207.05384"/>
     <use style="fill:#ff0000;stroke:#ff0000;" x="152.28551" xlink:href="#mfb94506dfa" y="127.783206"/>
     <use style="fill:#ff0000;stroke:#ff0000;" x="143.95284" xlink:href="#mfb94506dfa" y="133.309622"/>
     <use style="fill:#ff0000;stroke:#ff0000;" x="342.391825" xlink:href="#mfb94506dfa" y="149.684035"/>
     <use style="fill:#ff0000;stroke:#ff0000;" x="232.540396" xlink:href="#mfb94506dfa" y="94.433212"/>
     <use style="fill:#ff0000;stroke:#ff0000;" x="137.25148" xlink:href="#mfb94506dfa" y="186.142609"/>
     <use style="fill:#ff0000;stroke:#ff0000;" x="140.023766" xlink:href="#mfb94506dfa" y="202.703727"/>
     <use style="fill:#ff0000;stroke:#ff0000;" x="320.195223" xlink:href="#mfb94506dfa" y="227.051209"/>
     <use style="fill:#ff0000;stroke:#ff0000;" x="198.176741" xlink:href="#mfb94506dfa" y="99.846115"/>
     <use style="fill:#ff0000;stroke:#ff0000;" x="277.212799" xlink:href="#mfb94506dfa" y="246.451884"/>
     <use style="fill:#ff0000;stroke:#ff0000;" x="280.963713" xlink:href="#mfb94506dfa" y="248.813742"/>
     <use style="fill:#ff0000;stroke:#ff0000;" x="341.981928" xlink:href="#mfb94506dfa" y="173.252335"/>
     <use style="fill:#ff0000;stroke:#ff0000;" x="332.207814" xlink:href="#mfb94506dfa" y="132.836284"/>
     <use style="fill:#ff0000;stroke:#ff0000;" x="347.340693" xlink:href="#mfb94506dfa" y="179.66341"/>
     <use style="fill:#ff0000;stroke:#ff0000;" x="192.842495" xlink:href="#mfb94506dfa" y="243.532086"/>
     <use style="fill:#ff0000;stroke:#ff0000;" x="262.462415" xlink:href="#mfb94506dfa" y="97.353217"/>
     <use style="fill:#ff0000;stroke:#ff0000;" x="347.614545" xlink:href="#mfb94506dfa" y="171.776029"/>
     <use style="fill:#ff0000;stroke:#ff0000;" x="130.360028" xlink:href="#mfb94506dfa" y="187.439895"/>
     <use style="fill:#ff0000;stroke:#ff0000;" x="313.765101" xlink:href="#mfb94506dfa" y="121.382908"/>
     <use style="fill:#ff0000;stroke:#ff0000;" x="314.555089" xlink:href="#mfb94506dfa" y="230.221601"/>
     <use style="fill:#ff0000;stroke:#ff0000;" x="342.014662" xlink:href="#mfb94506dfa" y="183.385145"/>
     <use style="fill:#ff0000;stroke:#ff0000;" x="300.881756" xlink:href="#mfb94506dfa" y="233.288177"/>
     <use style="fill:#ff0000;stroke:#ff0000;" x="330.722264" xlink:href="#mfb94506dfa" y="134.679447"/>
     <use style="fill:#ff0000;stroke:#ff0000;" x="138.97791" xlink:href="#mfb94506dfa" y="150.459483"/>
     <use style="fill:#ff0000;stroke:#ff0000;" x="309.356604" xlink:href="#mfb94506dfa" y="235.260404"/>
     <use style="fill:#ff0000;stroke:#ff0000;" x="136.850171" xlink:href="#mfb94506dfa" y="182.935215"/>
     <use style="fill:#ff0000;stroke:#ff0000;" x="176.699457" xlink:href="#mfb94506dfa" y="107.14865"/>
     <use style="fill:#ff0000;stroke:#ff0000;" x="219.048647" xlink:href="#mfb94506dfa" y="92.230821"/>
     <use style="fill:#ff0000;stroke:#ff0000;" x="336.881525" xlink:href="#mfb94506dfa" y="153.944054"/>
     <use style="fill:#ff0000;stroke:#ff0000;" x="137.345816" xlink:href="#mfb94506dfa" y="201.845418"/>
     <use style="fill:#ff0000;stroke:#ff0000;" x="341.841033" xlink:href="#mfb94506dfa" y="204.145963"/>
     <use style="fill:#ff0000;stroke:#ff0000;" x="345.836032" xlink:href="#mfb94506dfa" y="151.491556"/>
     <use style="fill:#ff0000;stroke:#ff0000;" x="205.781293" xlink:href="#mfb94506dfa" y="250.286241"/>
     <use style="fill:#ff0000;stroke:#ff0000;" x="213.312785" xlink:href="#mfb94506dfa" y="251.070261"/>
     <use style="fill:#ff0000;stroke:#ff0000;" x="168.058421" xlink:href="#mfb94506dfa" y="236.425345"/>
     <use style="fill:#ff0000;stroke:#ff0000;" x="136.395118" xlink:href="#mfb94506dfa" y="191.408777"/>
     <use style="fill:#ff0000;stroke:#ff0000;" x="150.301298" xlink:href="#mfb94506dfa" y="212.943484"/>
     <use style="fill:#ff0000;stroke:#ff0000;" x="297.750644" xlink:href="#mfb94506dfa" y="111.836289"/>
     <use style="fill:#ff0000;stroke:#ff0000;" x="264.518868" xlink:href="#mfb94506dfa" y="248.36167"/>
     <use style="fill:#ff0000;stroke:#ff0000;" x="181.315569" xlink:href="#mfb94506dfa" y="104.253235"/>
     <use style="fill:#ff0000;stroke:#ff0000;" x="342.998514" xlink:href="#mfb94506dfa" y="152.478093"/>
     <use style="fill:#ff0000;stroke:#ff0000;" x="341.060626" xlink:href="#mfb94506dfa" y="181.641594"/>
     <use style="fill:#ff0000;stroke:#ff0000;" x="156.291597" xlink:href="#mfb94506dfa" y="125.430033"/>
     <use style="fill:#ff0000;stroke:#ff0000;" x="209.824423" xlink:href="#mfb94506dfa" y="96.423254"/>
     <use style="fill:#ff0000;stroke:#ff0000;" x="245.561082" xlink:href="#mfb94506dfa" y="94.207308"/>
     <use style="fill:#ff0000;stroke:#ff0000;" x="282.271362" xlink:href="#mfb94506dfa" y="104.714464"/>
     <use style="fill:#ff0000;stroke:#ff0000;" x="335.135767" xlink:href="#mfb94506dfa" y="138.826087"/>
     <use style="fill:#ff0000;stroke:#ff0000;" x="188.677499" xlink:href="#mfb94506dfa" y="103.976866"/>
     <use style="fill:#ff0000;stroke:#ff0000;" x="324.443692" xlink:href="#mfb94506dfa" y="127.112693"/>
     <use style="fill:#ff0000;stroke:#ff0000;" x="129.179865" xlink:href="#mfb94506dfa" y="159.584522"/>
     <use style="fill:#ff0000;stroke:#ff0000;" x="347.71609" xlink:href="#mfb94506dfa" y="185.145182"/>
     <use style="fill:#ff0000;stroke:#ff0000;" x="134.631965" xlink:href="#mfb94506dfa" y="162.770578"/>
     <use style="fill:#ff0000;stroke:#ff0000;" x="141.313466" xlink:href="#mfb94506dfa" y="137.038936"/>
     <use style="fill:#ff0000;stroke:#ff0000;" x="228.686412" xlink:href="#mfb94506dfa" y="250.155043"/>
     <use style="fill:#ff0000;stroke:#ff0000;" x="335.701072" xlink:href="#mfb94506dfa" y="212.725905"/>
     <use style="fill:#ff0000;stroke:#ff0000;" x="162.060525" xlink:href="#mfb94506dfa" y="116.53269"/>
     <use style="fill:#ff0000;stroke:#ff0000;" x="166.88963" xlink:href="#mfb94506dfa" y="236.443021"/>
     <use style="fill:#ff0000;stroke:#ff0000;" x="326.583957" xlink:href="#mfb94506dfa" y="134.589353"/>
     <use style="fill:#ff0000;stroke:#ff0000;" x="340.003929" xlink:href="#mfb94506dfa" y="142.578452"/>
     <use style="fill:#ff0000;stroke:#ff0000;" x="159.048685" xlink:href="#mfb94506dfa" y="126.43184"/>
     <use style="fill:#ff0000;stroke:#ff0000;" x="137.392124" xlink:href="#mfb94506dfa" y="147.793753"/>
     <use style="fill:#ff0000;stroke:#ff0000;" x="146.974957" xlink:href="#mfb94506dfa" y="213.147282"/>
     <use style="fill:#ff0000;stroke:#ff0000;" x="142.592769" xlink:href="#mfb94506dfa" y="135.534994"/>
     <use style="fill:#ff0000;stroke:#ff0000;" x="343.628858" xlink:href="#mfb94506dfa" y="178.628912"/>
     <use style="fill:#ff0000;stroke:#ff0000;" x="265.3546" xlink:href="#mfb94506dfa" y="288.05004"/>
     <use style="fill:#ff0000;stroke:#ff0000;" x="138.349291" xlink:href="#mfb94506dfa" y="81.269885"/>
     <use style="fill:#ff0000;stroke:#ff0000;" x="340.333406" xlink:href="#mfb94506dfa" y="260.067806"/>
     <use style="fill:#ff0000;stroke:#ff0000;" x="371.597593" xlink:href="#mfb94506dfa" y="241.804222"/>
     <use style="fill:#ff0000;stroke:#ff0000;" x="168.028754" xlink:href="#mfb94506dfa" y="278.99648"/>
     <use style="fill:#ff0000;stroke:#ff0000;" x="113.768753" xlink:href="#mfb94506dfa" y="103.803204"/>
     <use style="fill:#ff0000;stroke:#ff0000;" x="390.045177" xlink:href="#mfb94506dfa" y="142.55515"/>
     <use style="fill:#ff0000;stroke:#ff0000;" x="273.711893" xlink:href="#mfb94506dfa" y="53.568"/>
     <use style="fill:#ff0000;stroke:#ff0000;" x="288.833054" xlink:href="#mfb94506dfa" y="63.250156"/>
     <use style="fill:#ff0000;stroke:#ff0000;" x="86.739812" xlink:href="#mfb94506dfa" y="206.794911"/>
     <use style="fill:#ff0000;stroke:#ff0000;" x="394.509668" xlink:href="#mfb94506dfa" y="181.20246"/>
     <use style="fill:#ff0000;stroke:#ff0000;" x="337.05631" xlink:href="#mfb94506dfa" y="74.614745"/>
     <use style="fill:#ff0000;stroke:#ff0000;" x="170.95031" xlink:href="#mfb94506dfa" y="279.641298"/>
     <use style="fill:#ff0000;stroke:#ff0000;" x="74.789318" xlink:href="#mfb94506dfa" y="169.462404"/>
     <use style="fill:#ff0000;stroke:#ff0000;" x="166.402679" xlink:href="#mfb94506dfa" y="63.440234"/>
     <use style="fill:#ff0000;stroke:#ff0000;" x="78.770169" xlink:href="#mfb94506dfa" y="171.964321"/>
     <use style="fill:#ff0000;stroke:#ff0000;" x="286.739665" xlink:href="#mfb94506dfa" y="58.38949"/>
     <use style="fill:#ff0000;stroke:#ff0000;" x="270.092229" xlink:href="#mfb94506dfa" y="55.741435"/>
     <use style="fill:#ff0000;stroke:#ff0000;" x="392.561362" xlink:href="#mfb94506dfa" y="200.330357"/>
     <use style="fill:#ff0000;stroke:#ff0000;" x="306.832682" xlink:href="#mfb94506dfa" y="283.798433"/>
     <use style="fill:#ff0000;stroke:#ff0000;" x="331.063682" xlink:href="#mfb94506dfa" y="80.64917"/>
     <use style="fill:#ff0000;stroke:#ff0000;" x="272.20378" xlink:href="#mfb94506dfa" y="287.027233"/>
     <use style="fill:#ff0000;stroke:#ff0000;" x="96.81663" xlink:href="#mfb94506dfa" y="233.401059"/>
     <use style="fill:#ff0000;stroke:#ff0000;" x="295.61621" xlink:href="#mfb94506dfa" y="285.702504"/>
     <use style="fill:#ff0000;stroke:#ff0000;" x="372.546244" xlink:href="#mfb94506dfa" y="114.540739"/>
     <use style="fill:#ff0000;stroke:#ff0000;" x="397.55515" xlink:href="#mfb94506dfa" y="143.171211"/>
     <use style="fill:#ff0000;stroke:#ff0000;" x="390.601504" xlink:href="#mfb94506dfa" y="143.557512"/>
     <use style="fill:#ff0000;stroke:#ff0000;" x="324.834967" xlink:href="#mfb94506dfa" y="268.362445"/>
     <use style="fill:#ff0000;stroke:#ff0000;" x="322.835626" xlink:href="#mfb94506dfa" y="73.64789"/>
     <use style="fill:#ff0000;stroke:#ff0000;" x="151.77311" xlink:href="#mfb94506dfa" y="269.255524"/>
     <use style="fill:#ff0000;stroke:#ff0000;" x="73.832727" xlink:href="#mfb94506dfa" y="176.816522"/>
     <use style="fill:#ff0000;stroke:#ff0000;" x="74.49027" xlink:href="#mfb94506dfa" y="174.832192"/>
     <use style="fill:#ff0000;stroke:#ff0000;" x="168.948832" xlink:href="#mfb94506dfa" y="280.405703"/>
     <use style="fill:#ff0000;stroke:#ff0000;" x="246.726737" xlink:href="#mfb94506dfa" y="293.896396"/>
     <use style="fill:#ff0000;stroke:#ff0000;" x="235.535622" xlink:href="#mfb94506dfa" y="295.488"/>
     <use style="fill:#ff0000;stroke:#ff0000;" x="283.416629" xlink:href="#mfb94506dfa" y="55.712279"/>
     <use style="fill:#ff0000;stroke:#ff0000;" x="108.171968" xlink:href="#mfb94506dfa" y="242.042139"/>
     <use style="fill:#ff0000;stroke:#ff0000;" x="76.294409" xlink:href="#mfb94506dfa" y="159.452945"/>
     <use style="fill:#ff0000;stroke:#ff0000;" x="113.999665" xlink:href="#mfb94506dfa" y="95.036152"/>
     <use style="fill:#ff0000;stroke:#ff0000;" x="334.307962" xlink:href="#mfb94506dfa" y="268.937803"/>
     <use style="fill:#ff0000;stroke:#ff0000;" x="148.689777" xlink:href="#mfb94506dfa" y="273.90233"/>
     <use style="fill:#ff0000;stroke:#ff0000;" x="302.778036" xlink:href="#mfb94506dfa" y="68.590265"/>
     <use style="fill:#ff0000;stroke:#ff0000;" x="234.201907" xlink:href="#mfb94506dfa" y="54.308859"/>
     <use style="fill:#ff0000;stroke:#ff0000;" x="337.592363" xlink:href="#mfb94506dfa" y="261.805983"/>
     <use style="fill:#ff0000;stroke:#ff0000;" x="185.050175" xlink:href="#mfb94506dfa" y="57.474861"/>
     <use style="fill:#ff0000;stroke:#ff0000;" x="297.235412" xlink:href="#mfb94506dfa" y="282.611092"/>
     <use style="fill:#ff0000;stroke:#ff0000;" x="140.454378" xlink:href="#mfb94506dfa" y="262.18439"/>
     <use style="fill:#ff0000;stroke:#ff0000;" x="202.668163" xlink:href="#mfb94506dfa" y="60.39212"/>
     <use style="fill:#ff0000;stroke:#ff0000;" x="392.292047" xlink:href="#mfb94506dfa" y="131.517988"/>
     <use style="fill:#ff0000;stroke:#ff0000;" x="103.880242" xlink:href="#mfb94506dfa" y="116.232411"/>
     <use style="fill:#ff0000;stroke:#ff0000;" x="343.127642" xlink:href="#mfb94506dfa" y="262.750824"/>
     <use style="fill:#ff0000;stroke:#ff0000;" x="163.703874" xlink:href="#mfb94506dfa" y="279.723442"/>
     <use style="fill:#ff0000;stroke:#ff0000;" x="394.359713" xlink:href="#mfb94506dfa" y="182.642911"/>
     <use style="fill:#ff0000;stroke:#ff0000;" x="117.316378" xlink:href="#mfb94506dfa" y="249.166376"/>
     <use style="fill:#ff0000;stroke:#ff0000;" x="390.532758" xlink:href="#mfb94506dfa" y="138.677413"/>
     <use style="fill:#ff0000;stroke:#ff0000;" x="331.397527" xlink:href="#mfb94506dfa" y="76.569561"/>
     <use style="fill:#ff0000;stroke:#ff0000;" x="124.012251" xlink:href="#mfb94506dfa" y="250.288393"/>
     <use style="fill:#ff0000;stroke:#ff0000;" x="365.972463" xlink:href="#mfb94506dfa" y="99.443693"/>
     <use style="fill:#ff0000;stroke:#ff0000;" x="147.106376" xlink:href="#mfb94506dfa" y="75.219697"/>
     <use style="fill:#ff0000;stroke:#ff0000;" x="264.907208" xlink:href="#mfb94506dfa" y="289.089249"/>
     <use style="fill:#ff0000;stroke:#ff0000;" x="356.072302" xlink:href="#mfb94506dfa" y="253.450951"/>
     <use style="fill:#ff0000;stroke:#ff0000;" x="80.985315" xlink:href="#mfb94506dfa" y="148.505409"/>
     <use style="fill:#ff0000;stroke:#ff0000;" x="154.065133" xlink:href="#mfb94506dfa" y="71.053184"/>
     <use style="fill:#ff0000;stroke:#ff0000;" x="174.543165" xlink:href="#mfb94506dfa" y="278.417725"/>
     <use style="fill:#ff0000;stroke:#ff0000;" x="277.374717" xlink:href="#mfb94506dfa" y="289.100409"/>
     <use style="fill:#ff0000;stroke:#ff0000;" x="371.294976" xlink:href="#mfb94506dfa" y="233.873598"/>
     <use style="fill:#ff0000;stroke:#ff0000;" x="380.071204" xlink:href="#mfb94506dfa" y="233.34012"/>
     <use style="fill:#ff0000;stroke:#ff0000;" x="169.834849" xlink:href="#mfb94506dfa" y="283.328697"/>
     <use style="fill:#ff0000;stroke:#ff0000;" x="76.602498" xlink:href="#mfb94506dfa" y="187.402718"/>
     <use style="fill:#ff0000;stroke:#ff0000;" x="299.511816" xlink:href="#mfb94506dfa" y="60.79496"/>
     <use style="fill:#ff0000;stroke:#ff0000;" x="85.519242" xlink:href="#mfb94506dfa" y="131.723457"/>
     <use style="fill:#ff0000;stroke:#ff0000;" x="82.337341" xlink:href="#mfb94506dfa" y="139.645288"/>
     <use style="fill:#ff0000;stroke:#ff0000;" x="383.782166" xlink:href="#mfb94506dfa" y="117.834512"/>
     <use style="fill:#ff0000;stroke:#ff0000;" x="380.735257" xlink:href="#mfb94506dfa" y="219.137799"/>
     <use style="fill:#ff0000;stroke:#ff0000;" x="368.586347" xlink:href="#mfb94506dfa" y="242.006367"/>
     <use style="fill:#ff0000;stroke:#ff0000;" x="156.205664" xlink:href="#mfb94506dfa" y="278.720269"/>
     <use style="fill:#ff0000;stroke:#ff0000;" x="272.775081" xlink:href="#mfb94506dfa" y="56.462042"/>
     <use style="fill:#ff0000;stroke:#ff0000;" x="304.40057" xlink:href="#mfb94506dfa" y="277.613632"/>
     <use style="fill:#ff0000;stroke:#ff0000;" x="268.81843" xlink:href="#mfb94506dfa" y="292.634838"/>
     <use style="fill:#ff0000;stroke:#ff0000;" x="96.621696" xlink:href="#mfb94506dfa" y="115.127018"/>
     <use style="fill:#ff0000;stroke:#ff0000;" x="358.112383" xlink:href="#mfb94506dfa" y="96.384673"/>
     <use style="fill:#ff0000;stroke:#ff0000;" x="93.031492" xlink:href="#mfb94506dfa" y="220.553644"/>
     <use style="fill:#ff0000;stroke:#ff0000;" x="389.91365" xlink:href="#mfb94506dfa" y="220.894486"/>
     <use style="fill:#ff0000;stroke:#ff0000;" x="367.810515" xlink:href="#mfb94506dfa" y="104.094869"/>
     <use style="fill:#ff0000;stroke:#ff0000;" x="222.624541" xlink:href="#mfb94506dfa" y="293.207036"/>
     <use style="fill:#ff0000;stroke:#ff0000;" x="92.352967" xlink:href="#mfb94506dfa" y="135.207286"/>
     <use style="fill:#ff0000;stroke:#ff0000;" x="397.715491" xlink:href="#mfb94506dfa" y="150.363335"/>
     <use style="fill:#ff0000;stroke:#ff0000;" x="398.487273" xlink:href="#mfb94506dfa" y="201.639221"/>
     <use style="fill:#ff0000;stroke:#ff0000;" x="381.629825" xlink:href="#mfb94506dfa" y="115.933237"/>
     <use style="fill:#ff0000;stroke:#ff0000;" x="140.219995" xlink:href="#mfb94506dfa" y="83.821842"/>
     <use style="fill:#ff0000;stroke:#ff0000;" x="149.304924" xlink:href="#mfb94506dfa" y="79.097217"/>
     <use style="fill:#ff0000;stroke:#ff0000;" x="391.387592" xlink:href="#mfb94506dfa" y="191.410526"/>
     <use style="fill:#ff0000;stroke:#ff0000;" x="386.250637" xlink:href="#mfb94506dfa" y="121.02088"/>
     <use style="fill:#ff0000;stroke:#ff0000;" x="281.518952" xlink:href="#mfb94506dfa" y="55.42409"/>
     <use style="fill:#ff0000;stroke:#ff0000;" x="166.416843" xlink:href="#mfb94506dfa" y="276.201551"/>
     <use style="fill:#ff0000;stroke:#ff0000;" x="356.398964" xlink:href="#mfb94506dfa" y="87.60749"/>
     <use style="fill:#ff0000;stroke:#ff0000;" x="133.415219" xlink:href="#mfb94506dfa" y="88.889909"/>
     <use style="fill:#ff0000;stroke:#ff0000;" x="116.22409" xlink:href="#mfb94506dfa" y="243.307491"/>
     <use style="fill:#ff0000;stroke:#ff0000;" x="301.838339" xlink:href="#mfb94506dfa" y="60.872819"/>
     <use style="fill:#ff0000;stroke:#ff0000;" x="151.555969" xlink:href="#mfb94506dfa" y="77.146411"/>
     <use style="fill:#ff0000;stroke:#ff0000;" x="351.401392" xlink:href="#mfb94506dfa" y="83.745506"/>
     <use style="fill:#ff0000;stroke:#ff0000;" x="131.78855" xlink:href="#mfb94506dfa" y="79.810023"/>
     <use style="fill:#ff0000;stroke:#ff0000;" x="196.428868" xlink:href="#mfb94506dfa" y="58.751157"/>
     <use style="fill:#ff0000;stroke:#ff0000;" x="397.624163" xlink:href="#mfb94506dfa" y="204.716218"/>
     <use style="fill:#ff0000;stroke:#ff0000;" x="303.665903" xlink:href="#mfb94506dfa" y="63.375889"/>
     <use style="fill:#ff0000;stroke:#ff0000;" x="370.736833" xlink:href="#mfb94506dfa" y="99.33849"/>
     <use style="fill:#ff0000;stroke:#ff0000;" x="327.891177" xlink:href="#mfb94506dfa" y="73.71831"/>
     <use style="fill:#ff0000;stroke:#ff0000;" x="393.391409" xlink:href="#mfb94506dfa" y="213.743496"/>
     <use style="fill:#ff0000;stroke:#ff0000;" x="173.039321" xlink:href="#mfb94506dfa" y="62.136688"/>
     <use style="fill:#ff0000;stroke:#ff0000;" x="243.482514" xlink:href="#mfb94506dfa" y="289.541347"/>
     <use style="fill:#ff0000;stroke:#ff0000;" x="100.585726" xlink:href="#mfb94506dfa" y="116.467954"/>
     <use style="fill:#ff0000;stroke:#ff0000;" x="343.259885" xlink:href="#mfb94506dfa" y="87.995446"/>
     <use style="fill:#ff0000;stroke:#ff0000;" x="375.321336" xlink:href="#mfb94506dfa" y="118.956502"/>
     <use style="fill:#ff0000;stroke:#ff0000;" x="102.409794" xlink:href="#mfb94506dfa" y="117.583491"/>
     <use style="fill:#ff0000;stroke:#ff0000;" x="229.492688" xlink:href="#mfb94506dfa" y="291.836145"/>
     <use style="fill:#ff0000;stroke:#ff0000;" x="100.851868" xlink:href="#mfb94506dfa" y="118.574226"/>
     <use style="fill:#ff0000;stroke:#ff0000;" x="377.834939" xlink:href="#mfb94506dfa" y="112.308477"/>
     <use style="fill:#ff0000;stroke:#ff0000;" x="130.14732" xlink:href="#mfb94506dfa" y="86.417102"/>
     <use style="fill:#ff0000;stroke:#ff0000;" x="392.643382" xlink:href="#mfb94506dfa" y="129.519384"/>
     <use style="fill:#ff0000;stroke:#ff0000;" x="100.740769" xlink:href="#mfb94506dfa" y="114.36524"/>
     <use style="fill:#ff0000;stroke:#ff0000;" x="168.932156" xlink:href="#mfb94506dfa" y="64.193408"/>
     <use style="fill:#ff0000;stroke:#ff0000;" x="196.543802" xlink:href="#mfb94506dfa" y="60.938573"/>
     <use style="fill:#ff0000;stroke:#ff0000;" x="390.581452" xlink:href="#mfb94506dfa" y="209.379061"/>
     <use style="fill:#ff0000;stroke:#ff0000;" x="211.178248" xlink:href="#mfb94506dfa" y="53.704149"/>
     <use style="fill:#ff0000;stroke:#ff0000;" x="177.895359" xlink:href="#mfb94506dfa" y="283.222456"/>
     <use style="fill:#ff0000;stroke:#ff0000;" x="84.836986" xlink:href="#mfb94506dfa" y="132.821429"/>
     <use style="fill:#ff0000;stroke:#ff0000;" x="256.256435" xlink:href="#mfb94506dfa" y="290.106001"/>
     <use style="fill:#ff0000;stroke:#ff0000;" x="240.727644" xlink:href="#mfb94506dfa" y="54.86639"/>
     <use style="fill:#ff0000;stroke:#ff0000;" x="385.836513" xlink:href="#mfb94506dfa" y="218.511592"/>
     <use style="fill:#ff0000;stroke:#ff0000;" x="86.887458" xlink:href="#mfb94506dfa" y="145.887677"/>
     <use style="fill:#ff0000;stroke:#ff0000;" x="78.172754" xlink:href="#mfb94506dfa" y="160.422762"/>
     <use style="fill:#ff0000;stroke:#ff0000;" x="395.451151" xlink:href="#mfb94506dfa" y="171.626252"/>
     <use style="fill:#ff0000;stroke:#ff0000;" x="119.67135" xlink:href="#mfb94506dfa" y="254.577969"/>
     <use style="fill:#ff0000;stroke:#ff0000;" x="192.216186" xlink:href="#mfb94506dfa" y="63.51075"/>
     <use style="fill:#ff0000;stroke:#ff0000;" x="126.437106" xlink:href="#mfb94506dfa" y="260.456437"/>
     <use style="fill:#ff0000;stroke:#ff0000;" x="327.832878" xlink:href="#mfb94506dfa" y="74.028431"/>
     <use style="fill:#ff0000;stroke:#ff0000;" x="79.152607" xlink:href="#mfb94506dfa" y="151.499591"/>
     <use style="fill:#ff0000;stroke:#ff0000;" x="248.937659" xlink:href="#mfb94506dfa" y="292.798217"/>
     <use style="fill:#ff0000;stroke:#ff0000;" x="250.512348" xlink:href="#mfb94506dfa" y="289.181985"/>
     <use style="fill:#ff0000;stroke:#ff0000;" x="395.482616" xlink:href="#mfb94506dfa" y="184.696165"/>
    </g>
   </g>
   <g id="PathCollection_2"/>
   <g id="PathCollection_3"/>
   <g id="matplotlib.axis_1">
    <g id="xtick_1">
     <g id="line2d_1">
      <defs>
       <path d="M 0 0 
L 0 3.5 
" id="m76bb83dee3" style="stroke:#000000;stroke-width:0.8;"/>
      </defs>
      <g>
       <use style="stroke:#000000;stroke-width:0.8;" x="78.747763" xlink:href="#m76bb83dee3" y="307.584"/>
      </g>
     </g>
     <g id="text_1">
      <!-- −0.3 -->
      <defs>
       <path d="M 10.59375 35.5 
L 73.1875 35.5 
L 73.1875 27.203125 
L 10.59375 27.203125 
z
" id="DejaVuSans-8722"/>
       <path d="M 31.78125 66.40625 
Q 24.171875 66.40625 20.328125 58.90625 
Q 16.5 51.421875 16.5 36.375 
Q 16.5 21.390625 20.328125 13.890625 
Q 24.171875 6.390625 31.78125 6.390625 
Q 39.453125 6.390625 43.28125 13.890625 
Q 47.125 21.390625 47.125 36.375 
Q 47.125 51.421875 43.28125 58.90625 
Q 39.453125 66.40625 31.78125 66.40625 
z
M 31.78125 74.21875 
Q 44.046875 74.21875 50.515625 64.515625 
Q 56.984375 54.828125 56.984375 36.375 
Q 56.984375 17.96875 50.515625 8.265625 
Q 44.046875 -1.421875 31.78125 -1.421875 
Q 19.53125 -1.421875 13.0625 8.265625 
Q 6.59375 17.96875 6.59375 36.375 
Q 6.59375 54.828125 13.0625 64.515625 
Q 19.53125 74.21875 31.78125 74.21875 
z
" id="DejaVuSans-48"/>
       <path d="M 10.6875 12.40625 
L 21 12.40625 
L 21 0 
L 10.6875 0 
z
" id="DejaVuSans-46"/>
       <path d="M 40.578125 39.3125 
Q 47.65625 37.796875 51.625 33 
Q 55.609375 28.21875 55.609375 21.1875 
Q 55.609375 10.40625 48.1875 4.484375 
Q 40.765625 -1.421875 27.09375 -1.421875 
Q 22.515625 -1.421875 17.65625 -0.515625 
Q 12.796875 0.390625 7.625 2.203125 
L 7.625 11.71875 
Q 11.71875 9.328125 16.59375 8.109375 
Q 21.484375 6.890625 26.8125 6.890625 
Q 36.078125 6.890625 40.9375 10.546875 
Q 45.796875 14.203125 45.796875 21.1875 
Q 45.796875 27.640625 41.28125 31.265625 
Q 36.765625 34.90625 28.71875 34.90625 
L 20.21875 34.90625 
L 20.21875 43.015625 
L 29.109375 43.015625 
Q 36.375 43.015625 40.234375 45.921875 
Q 44.09375 48.828125 44.09375 54.296875 
Q 44.09375 59.90625 40.109375 62.90625 
Q 36.140625 65.921875 28.71875 65.921875 
Q 24.65625 65.921875 20.015625 65.03125 
Q 15.375 64.15625 9.8125 62.3125 
L 9.8125 71.09375 
Q 15.4375 72.65625 20.34375 73.4375 
Q 25.25 74.21875 29.59375 74.21875 
Q 40.828125 74.21875 47.359375 69.109375 
Q 53.90625 64.015625 53.90625 55.328125 
Q 53.90625 49.265625 50.4375 45.09375 
Q 46.96875 40.921875 40.578125 39.3125 
z
" id="DejaVuSans-51"/>
      </defs>
      <g transform="translate(66.606357 322.182437)scale(0.1 -0.1)">
       <use xlink:href="#DejaVuSans-8722"/>
       <use x="83.789062" xlink:href="#DejaVuSans-48"/>
       <use x="147.412109" xlink:href="#DejaVuSans-46"/>
       <use x="179.199219" xlink:href="#DejaVuSans-51"/>
      </g>
     </g>
    </g>
    <g id="xtick_2">
     <g id="line2d_2">
      <g>
       <use style="stroke:#000000;stroke-width:0.8;" x="132.060068" xlink:href="#m76bb83dee3" y="307.584"/>
      </g>
     </g>
     <g id="text_2">
      <!-- −0.2 -->
      <defs>
       <path d="M 19.1875 8.296875 
L 53.609375 8.296875 
L 53.609375 0 
L 7.328125 0 
L 7.328125 8.296875 
Q 12.9375 14.109375 22.625 23.890625 
Q 32.328125 33.6875 34.8125 36.53125 
Q 39.546875 41.84375 41.421875 45.53125 
Q 43.3125 49.21875 43.3125 52.78125 
Q 43.3125 58.59375 39.234375 62.25 
Q 35.15625 65.921875 28.609375 65.921875 
Q 23.96875 65.921875 18.8125 64.3125 
Q 13.671875 62.703125 7.8125 59.421875 
L 7.8125 69.390625 
Q 13.765625 71.78125 18.9375 73 
Q 24.125 74.21875 28.421875 74.21875 
Q 39.75 74.21875 46.484375 68.546875 
Q 53.21875 62.890625 53.21875 53.421875 
Q 53.21875 48.921875 51.53125 44.890625 
Q 49.859375 40.875 45.40625 35.40625 
Q 44.1875 33.984375 37.640625 27.21875 
Q 31.109375 20.453125 19.1875 8.296875 
z
" id="DejaVuSans-50"/>
      </defs>
      <g transform="translate(119.918662 322.182437)scale(0.1 -0.1)">
       <use xlink:href="#DejaVuSans-8722"/>
       <use x="83.789062" xlink:href="#DejaVuSans-48"/>
       <use x="147.412109" xlink:href="#DejaVuSans-46"/>
       <use x="179.199219" xlink:href="#DejaVuSans-50"/>
      </g>
     </g>
    </g>
    <g id="xtick_3">
     <g id="line2d_3">
      <g>
       <use style="stroke:#000000;stroke-width:0.8;" x="185.372373" xlink:href="#m76bb83dee3" y="307.584"/>
      </g>
     </g>
     <g id="text_3">
      <!-- −0.1 -->
      <defs>
       <path d="M 12.40625 8.296875 
L 28.515625 8.296875 
L 28.515625 63.921875 
L 10.984375 60.40625 
L 10.984375 69.390625 
L 28.421875 72.90625 
L 38.28125 72.90625 
L 38.28125 8.296875 
L 54.390625 8.296875 
L 54.390625 0 
L 12.40625 0 
z
" id="DejaVuSans-49"/>
      </defs>
      <g transform="translate(173.230967 322.182437)scale(0.1 -0.1)">
       <use xlink:href="#DejaVuSans-8722"/>
       <use x="83.789062" xlink:href="#DejaVuSans-48"/>
       <use x="147.412109" xlink:href="#DejaVuSans-46"/>
       <use x="179.199219" xlink:href="#DejaVuSans-49"/>
      </g>
     </g>
    </g>
    <g id="xtick_4">
     <g id="line2d_4">
      <g>
       <use style="stroke:#000000;stroke-width:0.8;" x="238.684678" xlink:href="#m76bb83dee3" y="307.584"/>
      </g>
     </g>
     <g id="text_4">
      <!-- 0.0 -->
      <g transform="translate(230.733115 322.182437)scale(0.1 -0.1)">
       <use xlink:href="#DejaVuSans-48"/>
       <use x="63.623047" xlink:href="#DejaVuSans-46"/>
       <use x="95.410156" xlink:href="#DejaVuSans-48"/>
      </g>
     </g>
    </g>
    <g id="xtick_5">
     <g id="line2d_5">
      <g>
       <use style="stroke:#000000;stroke-width:0.8;" x="291.996982" xlink:href="#m76bb83dee3" y="307.584"/>
      </g>
     </g>
     <g id="text_5">
      <!-- 0.1 -->
      <g transform="translate(284.04542 322.182437)scale(0.1 -0.1)">
       <use xlink:href="#DejaVuSans-48"/>
       <use x="63.623047" xlink:href="#DejaVuSans-46"/>
       <use x="95.410156" xlink:href="#DejaVuSans-49"/>
      </g>
     </g>
    </g>
    <g id="xtick_6">
     <g id="line2d_6">
      <g>
       <use style="stroke:#000000;stroke-width:0.8;" x="345.309287" xlink:href="#m76bb83dee3" y="307.584"/>
      </g>
     </g>
     <g id="text_6">
      <!-- 0.2 -->
      <g transform="translate(337.357725 322.182437)scale(0.1 -0.1)">
       <use xlink:href="#DejaVuSans-48"/>
       <use x="63.623047" xlink:href="#DejaVuSans-46"/>
       <use x="95.410156" xlink:href="#DejaVuSans-50"/>
      </g>
     </g>
    </g>
    <g id="xtick_7">
     <g id="line2d_7">
      <g>
       <use style="stroke:#000000;stroke-width:0.8;" x="398.621592" xlink:href="#m76bb83dee3" y="307.584"/>
      </g>
     </g>
     <g id="text_7">
      <!-- 0.3 -->
      <g transform="translate(390.670029 322.182437)scale(0.1 -0.1)">
       <use xlink:href="#DejaVuSans-48"/>
       <use x="63.623047" xlink:href="#DejaVuSans-46"/>
       <use x="95.410156" xlink:href="#DejaVuSans-51"/>
      </g>
     </g>
    </g>
   </g>
   <g id="matplotlib.axis_2">
    <g id="ytick_1">
     <g id="line2d_8">
      <defs>
       <path d="M 0 0 
L -3.5 0 
" id="ma553169635" style="stroke:#000000;stroke-width:0.8;"/>
      </defs>
      <g>
       <use style="stroke:#000000;stroke-width:0.8;" x="57.6" xlink:href="#ma553169635" y="291.629941"/>
      </g>
     </g>
     <g id="text_8">
      <!-- −0.3 -->
      <g transform="translate(26.317187 295.42916)scale(0.1 -0.1)">
       <use xlink:href="#DejaVuSans-8722"/>
       <use x="83.789062" xlink:href="#DejaVuSans-48"/>
       <use x="147.412109" xlink:href="#DejaVuSans-46"/>
       <use x="179.199219" xlink:href="#DejaVuSans-51"/>
      </g>
     </g>
    </g>
    <g id="ytick_2">
     <g id="line2d_9">
      <g>
       <use style="stroke:#000000;stroke-width:0.8;" x="57.6" xlink:href="#ma553169635" y="252.077703"/>
      </g>
     </g>
     <g id="text_9">
      <!-- −0.2 -->
      <g transform="translate(26.317187 255.876922)scale(0.1 -0.1)">
       <use xlink:href="#DejaVuSans-8722"/>
       <use x="83.789062" xlink:href="#DejaVuSans-48"/>
       <use x="147.412109" xlink:href="#DejaVuSans-46"/>
       <use x="179.199219" xlink:href="#DejaVuSans-50"/>
      </g>
     </g>
    </g>
    <g id="ytick_3">
     <g id="line2d_10">
      <g>
       <use style="stroke:#000000;stroke-width:0.8;" x="57.6" xlink:href="#ma553169635" y="212.525465"/>
      </g>
     </g>
     <g id="text_10">
      <!-- −0.1 -->
      <g transform="translate(26.317187 216.324684)scale(0.1 -0.1)">
       <use xlink:href="#DejaVuSans-8722"/>
       <use x="83.789062" xlink:href="#DejaVuSans-48"/>
       <use x="147.412109" xlink:href="#DejaVuSans-46"/>
       <use x="179.199219" xlink:href="#DejaVuSans-49"/>
      </g>
     </g>
    </g>
    <g id="ytick_4">
     <g id="line2d_11">
      <g>
       <use style="stroke:#000000;stroke-width:0.8;" x="57.6" xlink:href="#ma553169635" y="172.973227"/>
      </g>
     </g>
     <g id="text_11">
      <!-- 0.0 -->
      <g transform="translate(34.696875 176.772445)scale(0.1 -0.1)">
       <use xlink:href="#DejaVuSans-48"/>
       <use x="63.623047" xlink:href="#DejaVuSans-46"/>
       <use x="95.410156" xlink:href="#DejaVuSans-48"/>
      </g>
     </g>
    </g>
    <g id="ytick_5">
     <g id="line2d_12">
      <g>
       <use style="stroke:#000000;stroke-width:0.8;" x="57.6" xlink:href="#ma553169635" y="133.420988"/>
      </g>
     </g>
     <g id="text_12">
      <!-- 0.1 -->
      <g transform="translate(34.696875 137.220207)scale(0.1 -0.1)">
       <use xlink:href="#DejaVuSans-48"/>
       <use x="63.623047" xlink:href="#DejaVuSans-46"/>
       <use x="95.410156" xlink:href="#DejaVuSans-49"/>
      </g>
     </g>
    </g>
    <g id="ytick_6">
     <g id="line2d_13">
      <g>
       <use style="stroke:#000000;stroke-width:0.8;" x="57.6" xlink:href="#ma553169635" y="93.86875"/>
      </g>
     </g>
     <g id="text_13">
      <!-- 0.2 -->
      <g transform="translate(34.696875 97.667969)scale(0.1 -0.1)">
       <use xlink:href="#DejaVuSans-48"/>
       <use x="63.623047" xlink:href="#DejaVuSans-46"/>
       <use x="95.410156" xlink:href="#DejaVuSans-50"/>
      </g>
     </g>
    </g>
    <g id="ytick_7">
     <g id="line2d_14">
      <g>
       <use style="stroke:#000000;stroke-width:0.8;" x="57.6" xlink:href="#ma553169635" y="54.316512"/>
      </g>
     </g>
     <g id="text_14">
      <!-- 0.3 -->
      <g transform="translate(34.696875 58.115731)scale(0.1 -0.1)">
       <use xlink:href="#DejaVuSans-48"/>
       <use x="63.623047" xlink:href="#DejaVuSans-46"/>
       <use x="95.410156" xlink:href="#DejaVuSans-51"/>
      </g>
     </g>
    </g>
   </g>
   <g id="patch_3">
    <path d="M 57.6 307.584 
L 57.6 41.472 
" style="fill:none;stroke:#000000;stroke-linecap:square;stroke-linejoin:miter;stroke-width:0.8;"/>
   </g>
   <g id="patch_4">
    <path d="M 414.72 307.584 
L 414.72 41.472 
" style="fill:none;stroke:#000000;stroke-linecap:square;stroke-linejoin:miter;stroke-width:0.8;"/>
   </g>
   <g id="patch_5">
    <path d="M 57.6 307.584 
L 414.72 307.584 
" style="fill:none;stroke:#000000;stroke-linecap:square;stroke-linejoin:miter;stroke-width:0.8;"/>
   </g>
   <g id="patch_6">
    <path d="M 57.6 41.472 
L 414.72 41.472 
" style="fill:none;stroke:#000000;stroke-linecap:square;stroke-linejoin:miter;stroke-width:0.8;"/>
   </g>
  </g>
 </g>
 <defs>
  <clipPath id="pe3f618babf">
   <rect height="266.112" width="357.12" x="57.6" y="41.472"/>
  </clipPath>
 </defs>
</svg>
